<?xml version="1.0" encoding="UTF-8" ?>
<!DOCTYPE svg PUBLIC "-//W3C//DTD SVG 1.1//EN" "http://www.w3.org/Graphics/SVG/1.1/DTD/svg11.dtd">
<svg width="424pt" height="424pt" viewBox="0 0 424 424" version="1.1" xmlns="http://www.w3.org/2000/svg">
<g id="#4f6166ff">
<path fill="#4f6166" opacity="1.00" d=" M 89.46 0.00 L 334.42 0.00 C 342.03 1.10 349.57 2.73 356.90 5.08 C 386.62 15.96 408.46 46.07 407.96 77.98 C 408.14 162.99 407.85 248.00 408.08 333.01 C 408.37 349.30 407.11 366.49 399.00 381.00 C 386.01 406.12 358.34 422.74 330.02 422.06 C 253.34 421.94 176.66 422.02 99.98 422.02 C 85.27 422.21 70.03 420.23 56.99 412.99 C 31.68 400.61 15.09 373.12 15.06 345.03 C 14.83 260.02 15.17 175.00 14.91 89.99 C 14.76 74.00 15.68 57.12 23.98 42.97 C 36.09 18.15 62.42 2.58 89.46 0.00 M 38.74 71.17 C 47.31 68.91 56.10 67.80 64.98 67.99 C 136.66 68.00 208.35 68.01 280.03 67.98 C 285.31 68.45 293.24 66.89 296.02 72.99 C 301.24 79.64 296.62 90.73 288.05 91.00 C 214.37 91.02 140.67 91.05 66.98 90.92 C 61.62 91.11 56.17 90.86 50.88 91.89 C 43.56 93.88 37.47 101.20 38.15 109.00 C 37.70 183.99 38.25 259.01 37.90 334.01 C 38.07 343.96 37.40 354.28 41.27 363.71 C 46.60 379.31 59.77 391.37 75.07 396.96 C 83.70 399.95 92.96 400.08 101.99 400.08 C 177.00 399.89 252.01 400.08 327.02 399.99 C 347.82 400.72 369.43 389.91 379.01 371.01 C 383.83 362.53 386.39 352.78 386.06 343.02 C 385.96 268.01 386.00 193.01 386.01 118.00 C 385.93 103.15 386.51 88.26 385.43 73.43 C 384.03 57.45 375.66 41.84 362.18 32.85 C 352.08 26.27 340.21 22.16 328.02 22.97 C 249.67 23.08 171.32 22.89 92.98 23.06 C 65.77 21.50 42.00 44.92 38.74 71.17 Z" />
<path fill="#4f6166" opacity="1.00" d=" M 244.99 115.99 C 250.45 112.42 257.77 106.92 264.62 110.39 C 271.02 113.29 272.88 122.90 267.93 127.89 C 262.98 132.40 256.89 135.47 251.94 139.97 C 246.22 146.13 241.40 154.13 242.19 162.87 C 245.98 169.97 252.64 175.69 253.97 183.99 C 254.90 190.25 257.55 199.17 251.67 203.87 C 243.65 206.55 238.76 198.81 233.74 194.26 C 226.67 186.92 218.19 177.69 206.67 181.63 C 197.26 185.39 197.03 200.23 205.84 205.10 C 218.13 212.98 232.16 218.70 241.76 230.23 C 254.38 243.02 257.99 261.66 257.85 279.00 C 258.91 301.81 238.93 323.67 215.96 323.95 C 198.49 325.80 180.19 316.26 172.99 300.01 C 167.52 287.44 167.55 271.89 175.24 260.23 C 179.07 254.12 185.12 248.17 193.01 249.05 C 199.32 247.68 205.24 253.76 204.04 260.02 C 205.26 266.00 199.93 269.66 197.43 274.29 C 192.35 280.98 195.01 292.73 202.93 296.11 C 212.08 301.07 225.70 297.79 229.65 287.66 C 236.96 269.50 227.59 247.54 210.81 238.30 C 197.99 230.62 183.80 223.21 176.62 209.34 C 171.43 198.42 170.08 184.59 177.30 174.20 C 185.48 164.54 181.50 150.69 173.63 142.34 C 168.45 135.91 159.65 133.87 154.36 127.64 C 149.35 119.83 157.51 108.43 166.65 111.43 C 186.15 117.45 199.82 135.43 204.44 154.85 C 209.47 154.44 214.51 154.12 219.56 153.79 C 222.91 138.59 231.78 124.47 244.99 115.99 Z" />
<path fill="#4f6166" opacity="1.00" d=" M 93.07 157.01 C 96.95 149.25 110.21 149.24 113.01 157.97 C 115.38 167.04 109.35 175.91 110.82 185.13 C 113.20 195.50 121.19 204.14 130.86 208.26 C 137.49 211.42 144.10 205.81 150.81 206.05 C 158.54 212.74 169.19 220.59 168.87 231.76 C 163.56 241.95 154.52 249.95 151.30 261.32 C 146.77 278.39 147.94 298.03 158.03 312.99 C 169.52 331.70 191.08 343.72 213.04 343.88 C 241.36 343.41 267.95 323.12 275.91 295.96 C 281.46 278.65 278.96 259.83 273.06 242.97 C 269.95 235.21 264.82 228.50 261.07 221.06 C 257.98 214.65 265.17 209.75 270.10 207.08 C 276.56 203.52 283.39 207.88 289.74 209.31 C 302.94 207.85 314.33 196.13 315.70 182.90 C 315.71 175.01 312.52 167.22 313.39 159.33 C 316.33 150.20 331.08 150.90 334.40 159.61 C 342.21 180.43 339.34 207.49 321.19 222.17 C 314.93 226.66 308.04 230.19 300.96 233.20 C 301.67 235.70 302.37 238.22 303.06 240.73 C 312.75 240.26 323.15 239.20 332.06 243.90 C 346.28 250.26 353.64 265.60 356.68 280.10 C 357.26 288.25 347.06 293.82 340.17 289.86 C 332.57 285.13 332.28 274.02 324.41 269.55 C 318.67 267.32 312.37 267.42 306.31 266.97 C 306.22 272.49 306.16 278.01 306.15 283.54 C 322.81 290.53 336.38 305.89 338.79 324.11 C 341.12 333.56 339.45 343.33 336.45 352.39 C 334.62 356.84 332.80 361.74 328.63 364.54 C 322.19 368.11 312.61 363.21 312.51 355.69 C 312.83 346.94 317.45 338.52 315.36 329.66 C 313.09 321.14 306.12 315.30 300.19 309.30 C 292.25 328.08 279.18 344.86 261.93 355.90 C 236.50 372.30 202.38 375.20 174.99 362.00 C 152.61 351.93 135.22 332.34 126.35 309.63 C 117.57 315.48 109.64 324.89 110.21 336.02 C 110.17 343.37 114.01 350.50 112.90 357.88 C 110.95 365.86 99.22 368.62 94.34 361.70 C 84.90 345.70 82.81 324.11 92.86 307.90 C 99.08 296.81 109.92 289.50 120.82 283.53 C 120.81 278.04 120.82 272.57 120.74 267.09 C 113.55 266.70 104.26 264.58 99.16 271.16 C 92.93 276.81 95.45 288.68 85.90 290.98 C 80.86 293.62 75.09 289.99 72.44 285.62 C 69.84 279.94 72.31 273.60 73.96 268.00 C 77.02 256.63 85.66 246.66 97.05 243.15 C 105.65 240.79 114.60 240.26 123.48 240.31 C 123.96 237.91 124.47 235.56 124.97 233.19 C 111.50 227.86 98.63 218.89 92.74 205.18 C 86.60 189.96 86.24 172.06 93.07 157.01 Z" />
</g>
<g id="#01161eff">
<path fill="#01161e" opacity="1.00" d=" M 336.46 44.54 C 351.98 41.02 366.02 55.96 364.86 70.99 C 365.57 83.19 355.40 94.33 343.38 95.45 C 331.33 97.89 318.01 89.23 315.96 77.01 C 311.92 63.20 322.17 46.76 336.46 44.54 Z" />
</g>
</svg>
