<?xml version="1.0" encoding="UTF-8" ?>
<!DOCTYPE svg PUBLIC "-//W3C//DTD SVG 1.1//EN" "http://www.w3.org/Graphics/SVG/1.1/DTD/svg11.dtd">
<svg width="2149pt" height="404pt" viewBox="0 0 2149 404" version="1.1" xmlns="http://www.w3.org/2000/svg">
<g id="#ffffffff">
<path fill="#ffffff" opacity="1.00" d=" M 211.49 404.00 C 228.48 402.79 245.52 402.79 262.51 404.00 L 211.49 404.00 Z" />
</g>
<g id="#b09e99ff">
<path fill="#b09e99" opacity="1.00" d=" M 47.87 44.93 C 59.66 18.97 87.34 0.70 115.97 1.07 C 184.31 0.76 252.66 1.24 321.00 0.89 C 336.28 0.98 352.03 0.15 366.68 5.32 C 396.01 15.53 417.28 45.81 416.05 76.98 C 416.01 156.99 415.93 237.00 416.08 317.01 C 415.88 325.86 416.06 334.80 414.45 343.54 C 412.75 355.91 406.54 367.23 398.98 376.98 C 385.96 393.05 365.87 402.01 345.56 404.00 L 262.51 404.00 C 245.52 402.79 228.48 402.79 211.49 404.00 L 118.57 404.00 C 106.49 402.84 94.05 401.33 82.99 395.99 C 69.12 388.96 57.35 377.83 49.72 364.27 C 42.92 351.69 40.52 337.21 40.94 323.02 C 41.01 244.68 41.07 166.33 40.92 87.99 C 40.93 73.48 41.12 58.18 47.87 44.93 M 90.53 29.43 C 76.74 37.57 66.55 52.03 64.61 68.04 C 82.10 63.97 100.19 65.08 118.00 64.97 C 171.34 65.01 224.67 65.05 278.01 64.93 C 285.34 65.04 292.74 64.87 300.05 65.78 C 309.11 64.60 314.76 76.68 309.52 83.47 C 306.35 88.76 299.18 87.71 294.03 88.02 C 227.35 87.99 160.67 88.05 93.99 87.93 C 85.70 88.40 76.38 86.96 69.23 92.23 C 64.53 95.83 63.39 102.39 63.87 107.97 C 64.25 182.99 63.75 258.02 64.10 333.03 C 64.05 359.71 89.10 381.46 115.02 381.87 C 188.68 382.15 262.35 381.99 336.02 381.94 C 351.03 382.28 366.38 377.86 377.70 367.68 C 388.11 357.38 395.16 342.94 394.00 328.02 C 394.07 248.01 393.88 168.00 394.08 88.00 C 393.93 77.63 394.46 66.98 390.85 57.06 C 383.53 35.67 361.10 22.28 339.02 22.95 C 265.67 23.07 192.32 22.94 118.98 23.01 C 109.18 22.85 99.19 24.72 90.53 29.43 Z" />
<path fill="#b09e99" opacity="1.00" d=" M 1771.44 37.58 C 1792.44 36.25 1814.12 35.59 1834.30 42.60 C 1869.18 52.74 1897.33 80.12 1912.23 112.81 C 1926.68 146.00 1928.58 183.37 1923.81 218.87 C 1918.41 256.62 1899.93 293.94 1867.97 315.95 C 1839.28 337.16 1801.71 342.53 1766.98 339.15 C 1731.02 335.78 1696.85 316.54 1676.13 286.85 C 1651.04 252.92 1645.46 208.42 1649.43 167.41 C 1652.99 126.85 1671.69 86.46 1705.04 62.04 C 1724.22 47.69 1747.70 39.74 1771.44 37.58 M 1782.41 68.46 C 1755.44 69.36 1729.12 82.09 1712.31 103.29 C 1687.76 132.52 1682.11 173.10 1686.19 209.96 C 1688.71 248.82 1712.54 286.78 1748.86 302.23 C 1765.90 309.44 1785.01 308.59 1803.07 307.28 C 1817.75 306.45 1831.64 300.69 1843.96 292.93 C 1871.39 274.03 1887.13 241.34 1888.70 208.47 C 1890.63 171.16 1887.89 129.37 1862.27 99.74 C 1843.07 76.67 1811.84 66.20 1782.41 68.46 Z" />
<path fill="#b09e99" opacity="1.00" d=" M 478.00 41.01 C 506.34 41.02 534.67 40.93 563.01 41.00 C 580.41 41.07 598.12 43.56 613.99 51.04 C 630.40 58.64 644.18 72.53 650.33 89.68 C 657.54 111.18 657.13 135.69 647.23 156.28 C 639.88 170.49 628.08 182.42 613.90 189.84 C 606.64 193.85 598.75 196.45 590.97 199.21 C 614.17 210.48 625.83 234.26 639.09 254.93 C 654.99 280.38 670.65 305.98 686.79 331.28 C 687.43 234.63 686.56 137.97 687.21 41.32 C 737.04 40.74 786.88 40.89 836.71 41.22 C 836.94 51.81 836.99 62.40 837.05 72.99 C 798.70 73.05 760.36 72.95 722.01 73.01 C 721.98 105.34 721.98 137.67 722.01 169.99 C 757.34 170.04 792.68 169.95 828.02 170.01 C 827.97 180.67 827.96 191.33 828.01 201.99 C 792.68 202.04 757.35 201.95 722.02 202.01 C 721.98 235.67 721.98 269.33 722.01 302.99 C 762.35 303.05 802.68 302.95 843.02 303.01 C 842.97 313.67 842.96 324.33 843.01 334.99 C 777.72 334.97 712.43 335.07 647.14 334.94 C 629.33 305.37 611.84 275.59 593.91 246.08 C 585.37 232.49 574.69 218.48 558.89 213.13 C 543.92 209.31 528.30 210.20 513.00 209.96 C 512.96 251.64 513.04 293.33 512.99 335.03 C 501.32 334.97 489.67 334.97 478.01 335.03 C 477.98 237.02 478.00 139.01 478.00 41.01 M 513.01 73.02 C 512.98 108.34 512.98 143.66 513.02 178.98 C 535.62 178.40 558.69 181.03 580.93 175.80 C 599.23 169.92 614.89 154.38 617.80 134.90 C 619.51 119.91 618.56 102.79 607.99 90.99 C 597.53 78.39 580.63 74.12 564.97 73.15 C 547.65 72.65 530.33 73.11 513.01 73.02 Z" />
<path fill="#b09e99" opacity="1.00" d=" M 858.00 41.01 C 886.32 41.13 914.65 40.68 942.97 41.22 C 964.62 41.74 987.03 46.25 1004.95 59.06 C 1016.94 67.22 1026.41 78.97 1031.52 92.58 C 1043.03 124.50 1039.78 163.62 1016.65 189.67 C 999.85 209.76 974.41 221.30 948.56 223.41 C 930.06 224.58 911.52 223.85 893.01 224.00 C 892.94 261.01 893.05 298.01 892.99 335.01 C 881.32 334.98 869.66 334.98 858.01 335.02 C 857.98 237.01 858.00 139.01 858.00 41.01 M 893.01 73.03 C 892.98 113.02 892.98 153.02 893.01 193.02 C 910.73 193.09 928.51 193.27 946.15 191.33 C 971.50 190.36 995.56 171.40 1000.09 146.05 C 1002.44 128.33 1001.19 108.62 990.17 93.81 C 983.12 85.62 973.50 79.60 962.99 77.06 C 940.28 70.33 916.29 73.78 893.01 73.03 Z" />
<path fill="#b09e99" opacity="1.00" d=" M 1130.02 40.97 C 1141.93 40.99 1153.84 41.00 1165.77 41.07 C 1203.44 139.08 1241.13 237.08 1278.98 335.02 C 1265.97 335.03 1252.98 335.02 1240.00 334.99 C 1229.59 307.69 1219.33 280.33 1209.01 253.00 C 1167.74 253.03 1126.48 252.91 1085.23 253.06 C 1075.72 280.46 1066.14 307.83 1056.03 335.01 C 1043.02 335.03 1030.02 335.02 1017.03 335.01 C 1054.85 237.06 1092.08 138.88 1130.02 40.97 M 1140.82 101.81 C 1126.10 141.49 1111.89 181.36 1097.11 221.02 C 1130.46 220.95 1163.83 221.11 1197.19 220.92 C 1187.12 193.02 1176.71 165.25 1166.55 137.38 C 1159.92 117.92 1150.75 99.21 1147.28 78.81 C 1145.23 86.50 1143.56 94.32 1140.82 101.81 Z" />
<path fill="#b09e99" opacity="1.00" d=" M 1249.99 41.01 C 1318.00 40.99 1386.01 40.99 1454.03 41.00 C 1453.96 51.67 1453.95 62.33 1454.01 72.99 C 1425.67 73.04 1397.34 72.96 1369.01 73.01 C 1368.96 160.35 1369.03 247.69 1368.99 335.03 C 1357.32 334.98 1345.66 334.98 1334.01 335.02 C 1333.96 247.68 1334.03 160.34 1333.99 73.01 C 1305.98 72.96 1277.97 73.04 1249.97 73.00 C 1250.01 62.33 1250.02 51.67 1249.99 41.01 Z" />
<path fill="#b09e99" opacity="1.00" d=" M 1458.00 41.01 C 1486.33 41.02 1514.67 40.94 1543.01 41.00 C 1564.49 41.12 1586.87 44.76 1604.98 57.02 C 1625.40 69.48 1635.26 94.27 1635.47 117.45 C 1636.49 138.78 1628.51 160.36 1613.95 175.95 C 1601.92 187.29 1586.55 194.37 1570.90 199.22 C 1579.66 204.38 1589.46 209.12 1595.28 217.84 C 1605.98 232.70 1615.18 248.56 1625.00 264.00 C 1639.68 287.68 1654.71 311.14 1669.15 334.96 C 1655.20 335.08 1641.26 335.05 1627.33 334.86 C 1616.02 315.78 1604.52 296.82 1593.32 277.68 C 1584.99 264.34 1577.68 250.34 1568.40 237.62 C 1560.82 228.55 1553.03 218.83 1541.92 214.05 C 1526.11 209.16 1509.32 210.23 1493.01 209.96 C 1492.95 251.65 1493.04 293.34 1492.99 335.03 C 1481.31 334.97 1469.66 334.97 1458.01 335.03 C 1457.98 237.02 1458.00 139.01 1458.00 41.01 M 1493.01 73.03 C 1492.98 108.34 1492.98 143.66 1493.01 178.98 C 1514.02 178.57 1535.25 180.46 1556.12 177.16 C 1567.36 175.38 1577.06 168.86 1584.64 160.63 C 1600.08 146.29 1601.77 122.38 1595.66 103.31 C 1590.19 90.50 1578.96 80.13 1565.37 76.59 C 1541.85 70.17 1517.05 73.98 1493.01 73.03 Z" />
<path fill="#b09e99" opacity="1.00" d=" M 1942.00 40.98 C 1953.65 41.02 1965.31 41.02 1976.99 40.98 C 1977.03 128.32 1976.96 215.66 1977.01 302.99 C 2016.35 303.04 2055.69 302.95 2095.03 303.01 C 2094.96 313.67 2094.94 324.33 2095.01 334.99 C 2044.01 335.01 1993.00 335.01 1942.00 334.99 C 1941.99 236.98 1941.99 138.98 1942.00 40.98 Z" />
</g>
<g id="#f1e7e3ff">
<path fill="#f1e7e3" opacity="1.00" d=" M 348.45 43.46 C 363.64 40.49 377.00 56.24 374.67 70.82 C 373.90 82.26 363.62 92.30 351.97 91.98 C 341.00 93.49 329.59 85.02 327.95 74.03 C 324.38 60.63 334.64 45.03 348.45 43.46 Z" />
<path fill="#f1e7e3" opacity="1.00" d=" M 256.09 114.06 C 262.31 109.83 268.83 104.03 276.98 104.97 C 283.44 106.13 287.11 114.60 284.37 120.35 C 280.67 125.74 274.66 128.69 269.71 132.73 C 263.20 138.20 257.77 146.00 258.24 154.89 C 262.37 164.07 270.08 172.11 270.46 182.68 C 271.30 187.29 270.48 192.78 266.65 195.89 C 264.21 195.92 261.18 196.67 259.10 194.90 C 250.61 188.42 244.54 178.81 234.35 174.63 C 229.92 173.82 224.07 172.96 220.63 176.65 C 215.83 182.05 216.14 192.34 223.08 195.86 C 233.70 202.92 245.91 207.72 254.80 217.19 C 269.48 230.24 273.92 251.09 272.81 269.96 C 272.51 292.91 250.01 312.98 227.02 309.97 C 211.39 310.06 196.69 299.56 190.65 285.32 C 185.25 270.95 187.43 252.80 199.17 242.15 C 202.49 239.56 206.44 236.89 210.96 237.93 C 217.78 236.67 223.60 243.42 222.07 250.01 C 220.06 258.22 211.23 264.30 213.32 273.66 C 216.13 287.59 238.49 288.62 244.67 276.67 C 250.46 265.27 247.99 251.29 241.03 241.00 C 234.33 229.67 221.07 225.46 211.05 217.93 C 199.21 210.45 190.36 197.47 190.95 183.00 C 189.71 174.83 195.53 168.55 198.53 161.59 C 201.74 154.00 198.84 145.22 193.91 139.06 C 188.92 131.88 179.77 129.33 174.12 122.87 C 167.80 115.76 177.58 103.32 186.11 106.79 C 204.60 112.78 217.41 129.90 222.31 148.21 C 226.72 147.90 231.14 147.55 235.55 147.19 C 239.28 134.61 245.60 122.29 256.09 114.06 Z" />
<path fill="#f1e7e3" opacity="1.00" d=" M 113.49 154.57 C 115.39 149.40 119.69 143.67 126.03 144.96 C 131.83 144.74 136.10 150.48 135.67 155.97 C 135.02 165.44 130.11 176.26 136.07 184.95 C 139.73 191.41 145.54 196.95 152.72 199.19 C 158.89 200.18 164.86 197.97 170.85 196.92 C 177.70 203.71 188.13 210.04 187.98 220.96 C 184.32 231.18 175.64 238.69 171.90 248.90 C 167.33 264.33 167.90 281.79 176.15 295.91 C 188.46 319.80 218.13 333.23 244.17 326.29 C 269.48 319.66 290.55 296.56 291.83 269.97 C 293.94 252.55 289.35 234.72 280.02 219.97 C 277.34 215.81 274.60 211.35 274.94 206.14 C 277.48 202.68 280.59 199.26 284.73 197.76 C 292.48 196.29 300.16 200.09 307.90 198.95 C 318.06 195.78 327.34 186.16 326.76 174.97 C 327.56 167.35 324.53 159.87 325.36 152.31 C 328.38 143.69 343.29 144.23 345.96 153.00 C 351.78 169.14 352.00 188.41 342.03 203.03 C 336.01 213.32 324.87 218.88 314.23 223.27 C 314.83 225.41 315.45 227.56 316.10 229.70 C 323.91 230.27 331.99 229.45 339.64 231.43 C 354.87 236.50 364.36 251.85 366.77 267.13 C 369.08 276.56 355.11 282.53 349.08 275.94 C 344.13 270.72 341.93 263.31 336.39 258.59 C 331.06 255.95 324.69 256.58 319.00 255.44 C 319.03 259.24 319.09 266.84 319.12 270.63 C 331.46 276.65 342.23 286.53 347.58 299.34 C 351.74 311.33 352.58 324.94 347.78 336.87 C 346.17 340.88 344.77 345.45 341.20 348.21 C 335.09 352.13 325.07 348.30 324.44 340.67 C 324.11 331.06 330.53 321.41 326.04 311.97 C 322.87 306.11 317.93 301.48 313.35 296.74 C 304.74 314.76 292.16 331.49 274.69 341.69 C 257.83 352.30 237.13 355.62 217.53 353.58 C 185.87 349.08 158.67 326.04 146.94 296.57 C 142.40 300.51 137.33 304.24 134.93 309.97 C 129.70 319.72 134.88 330.75 134.91 341.00 C 134.37 349.08 122.36 353.04 117.29 346.74 C 108.76 333.89 106.84 316.91 111.27 302.28 C 116.37 287.84 128.99 278.02 141.88 270.75 C 141.92 266.97 142.02 259.40 142.07 255.61 C 136.45 255.77 130.11 253.80 125.02 257.03 C 117.99 261.50 117.65 270.69 112.79 276.77 C 107.59 280.81 98.46 279.75 95.58 273.38 C 93.19 258.26 100.77 241.71 114.27 234.24 C 123.77 230.06 134.36 230.17 144.50 229.50 C 144.88 227.49 145.26 225.48 145.65 223.49 C 133.71 218.47 122.16 210.74 116.14 198.86 C 109.51 185.18 109.01 168.98 113.49 154.57 Z" />
</g>
</svg>
